PathFileType	4	(X/Y/Z)	c:/Users/goper/Files/vsCode/490R/osim_files/C03/C03_fast_05.trc
DataRate	CameraRate	NumFrames	NumMarkers	Units                	OrigDataRate	OrigDataStartFrame	OrigNumFrames
250.00	250.00	4	36	mm	250.0	1891	2521
                Frame#	Time	LPSIS			LASIS			LTH1			LTH2			LTH3			LTH4			LLFE			LMFE			LSH1			LSH2			LSH3			LSH4			LLMAL			LMMAL			LCAL			LMTP5			LTOE			LMTP1			RPSIS			RASIS			RTH1			RTH2			RTH3			RTH4			RLFE			RMFE			RSH1			RSH2			RSH3			RSH4			RLMAL			RMMAL			RCAL			RMTP1			RTOE			RMTP5		
		X1	Y1	Z1	X2	Y2	Z2	X3	Y3	Z3	X4	Y4	Z4	X5	Y5	Z5	X6	Y6	Z6	X7	Y7	Z7	X8	Y8	Z8	X9	Y9	Z9	X10	Y10	Z10	X11	Y11	Z11	X12	Y12	Z12	X13	Y13	Z13	X14	Y14	Z14	X15	Y15	Z15	X16	Y16	Z16	X17	Y17	Z17	X18	Y18	Z18	X19	Y19	Z19	X20	Y20	Z20	X21	Y21	Z21	X22	Y22	Z22	X23	Y23	Z23	X24	Y24	Z24	X25	Y25	Z25	X26	Y26	Z26	X27	Y27	Z27	X28	Y28	Z28	X29	Y29	Z29	X30	Y30	Z30	X31	Y31	Z31	X32	Y32	Z32	X33	Y33	Z33	X34	Y34	Z34	X35	Y35	Z35	X36	Y36	Z36

1891	7.56000	-3502.75244	1049.29114	280.86847	-3688.82397	989.18372	326.85846	-3529.07324	645.91772	355.89145	0.00000	0.00000	0.00000	-3600.99268	637.49243	349.38846	-3590.67090	577.45001	339.20331	-3534.58008	494.06021	325.82095	-3535.09668	495.22787	214.73505	-3456.15967	324.45767	325.43338	0.00000	0.00000	0.00000	-3512.67407	317.79117	327.79831	-3504.54272	271.25943	320.73840	-3474.79077	109.71608	282.37430	0.00000	0.00000	0.00000	0.00000	0.00000	0.00000	0.00000	0.00000	0.00000	-3736.97656	355.83240	96.70107	-3718.85571	315.24390	99.74915	-3510.75684	1042.05347	167.32469	-3675.40039	995.21844	115.25910	0.00000	0.00000	0.00000	0.00000	0.00000	0.00000	-3750.37842	644.57300	84.17542	-3785.22778	593.83142	93.63728	-3835.27881	528.15912	118.41929	-3815.87280	552.36505	223.82280	0.00000	0.00000	0.00000	-3697.90771	321.18616	118.33604	0.00000	0.00000	0.00000	0.00000	0.00000	0.00000	-3605.72437	143.29164	172.13124	-3670.95654	168.98969	122.47295	0.00000	0.00000	0.00000	-3628.66284	80.11942	204.10602	0.00000	0.00000	0.00000	0.00000	0.00000	0.00000
1892	7.56400	0.00000	0.00000	0.00000	-3697.95264	990.03528	325.27942	-3532.27319	645.71869	355.62308	0.00000	0.00000	0.00000	-3604.13867	637.02032	348.90475	-3593.65356	577.09796	338.75476	-3536.99683	493.91782	325.36639	-3537.46875	495.20331	214.37189	-3457.61401	324.67117	325.07181	0.00000	0.00000	0.00000	-3514.14355	317.75085	327.35818	-3505.65894	271.18625	320.23553	-3475.03955	109.94801	281.85388	0.00000	0.00000	0.00000	0.00000	0.00000	0.00000	0.00000	0.00000	0.00000	-3746.81323	353.39032	97.02914	-3729.87720	312.35080	100.32041	0.00000	0.00000	0.00000	-3681.85913	994.25940	111.64179	0.00000	0.00000	0.00000	0.00000	0.00000	0.00000	-3756.04858	644.04425	84.65363	-3790.87109	593.27515	94.12007	-3841.89160	527.92279	118.94501	-3821.58179	552.10620	224.06975	0.00000	0.00000	0.00000	0.00000	0.00000	0.00000	0.00000	0.00000	0.00000	-2775.02148	546.80127	47.87213	0.00000	0.00000	0.00000	-3685.73022	165.65291	122.83265	-3570.92090	156.67212	154.63254	0.00000	0.00000	0.00000	-3628.72021	78.49524	202.95187	-3601.98267	55.13749	297.59613
1893	7.56800	0.00000	0.00000	0.00000	-3703.02417	989.28845	325.53406	-3535.54712	645.49237	355.37054	0.00000	0.00000	0.00000	-3607.39819	636.55103	348.48264	-3596.47827	576.62018	338.21735	-3539.48022	493.71249	324.95358	-3539.75122	495.00818	213.97740	-3458.93066	324.82953	324.61227	0.00000	0.00000	0.00000	-3515.66479	317.73532	326.87759	-3506.87842	271.19635	319.77313	-3475.31152	110.11244	281.35123	0.00000	0.00000	0.00000	0.00000	0.00000	0.00000	0.00000	0.00000	0.00000	-3756.77344	351.07922	96.95327	-3741.07300	309.61481	100.62021	-3521.65894	1040.42188	166.81218	-3696.16431	998.29169	121.99040	0.00000	0.00000	0.00000	0.00000	0.00000	0.00000	-3761.56470	643.42737	85.15125	-3796.34204	592.52875	94.57008	-3848.16064	527.48993	119.40159	-3827.22314	551.68115	224.31953	0.00000	0.00000	0.00000	1866.52551	2039.42957	342.84589	0.00000	0.00000	0.00000	0.00000	0.00000	0.00000	0.00000	0.00000	0.00000	-3700.56860	162.41869	123.26461	0.00000	0.00000	0.00000	-3628.79272	78.52877	202.33844	0.00000	0.00000	0.00000	-3602.03369	55.11459	297.57339
1894	7.57200	-3517.98901	1048.14136	279.82529	-3708.18091	988.55060	325.75092	-3538.84204	645.27838	355.10754	0.00000	0.00000	0.00000	-3610.68652	636.04486	348.01999	-3599.44263	576.16132	337.68216	-3541.89355	493.43561	324.46054	-3542.06006	494.87601	213.60750	-3455.72144	321.04254	322.00696	0.00000	0.00000	0.00000	-3517.11475	317.63599	326.36661	-3508.08228	271.17538	319.25830	-3475.60474	110.32517	280.82367	0.00000	0.00000	0.00000	0.00000	0.00000	0.00000	0.00000	0.00000	0.00000	-3766.79785	348.34680	97.49539	-3752.57373	307.44821	100.63071	-3527.29053	1040.31714	166.74664	-3701.80347	997.74988	122.25036	0.00000	0.00000	0.00000	0.00000	0.00000	0.00000	-3767.01074	642.66931	85.63490	-3801.61621	591.65759	94.97034	-3854.43457	527.07471	119.87088	-3832.69751	551.08966	224.55196	0.00000	0.00000	0.00000	0.00000	0.00000	0.00000	0.00000	0.00000	0.00000	1866.33167	2039.30286	343.10107	0.00000	0.00000	0.00000	-3715.65430	159.39777	123.48124	0.00000	0.00000	0.00000	0.00000	0.00000	0.00000	-3629.14844	78.57477	201.42812	-3602.06396	55.08743	297.46860
